<svg xmlns="http://www.w3.org/2000/svg" xmlns:svg="http://www.w3.org/2000/svg" xmlns:xlink="http://www.w3.org/1999/xlink" version="1.0" height="504.5pt" width="1060.5pt" viewBox="360 477 1068.5 510.5" ><defs><style type="text/css">
            @font-face {
                font-family: 'noto_regular';
                src: url('https://app.creately.com/diagram/assets/fonts/noto/noto-regular.woff') format('woff'),
                     url('https://app.creately.com/diagram/assets/fonts/noto/noto-regular.woff2') format('woff2');
                font-weight: normal;
                font-style: normal;
            }
        p {
            margin: 0;
        }
        </style></defs><defs><style>
            span{ display: inline-block; }
        </style></defs><g id="1ysobt0irb"><g transform="translate(734.45 480)"><path d="M 101.25,0.75 L 219.75,0.75 L 219.75,108.75 L 101.25,108.75 Z" fill="rgb(255, 255, 255)" stroke="rgb(0, 163, 136)" stroke-width="1.5" stroke-linecap="round" stroke-linejoin="round"/><path d="M 101.25,40.25 L 219.75,40.25" fill="none" stroke="rgb(0, 163, 136)" stroke-width="1.5" stroke-linecap="round" stroke-linejoin="round"/></g><g transform="translate(843.1341363906861, 489.75) rotate(0, 0, 0)" width="66" height="19"><text text-decoration="none" x="0" fill="#4b4b4b" font-size="11pt" font-family="Lato"  y="17">Satellite&#160;</text><text text-decoration="none" x="58" fill="#4b4b4b" font-size="10pt" font-family="noto_regular"  y="17"></text></g><g transform="translate(828.2659790039063, 523) rotate(0, 0, 0)" width="99" height="19"><text text-decoration="none" x="0" fill="#4b4b4b" font-size="11pt" font-family="Lato"  y="17">WEATHER_IS&#160;</text><text text-decoration="none" x="91" fill="#4b4b4b" font-size="10pt" font-family="noto_regular"  y="17"></text></g><g transform="translate(828.2659790039063, 542) rotate(0, 0, 0)" width="107" height="19"><text text-decoration="none" x="0" fill="#4b4b4b" font-size="11pt" font-family="Lato"  y="17">SYS_MANAGE&#160;</text><text text-decoration="none" x="99" fill="#4b4b4b" font-size="10pt" font-family="noto_regular"  y="17"></text></g></g><g id="1drb8h3g7z"><g transform="translate(825 670)"><path d="M 15.8,0.75 L 134.3,0.75 L 134.3,133.75 L 15.8,133.75 Z" fill="rgb(255, 255, 255)" stroke="rgb(0, 163, 136)" stroke-width="1.5" stroke-linecap="round" stroke-linejoin="round"/><path d="M 15.8,61.25 L 134.3,61.25" fill="none" stroke="rgb(0, 163, 136)" stroke-width="1.5" stroke-linecap="round" stroke-linejoin="round"/></g><g transform="translate(788.3381587473551, 670.9999968234491) rotate(0, 46, 0)" width="92" height="37"><text text-decoration="none" x="17" fill="#4b4b4b" font-size="11pt" font-family="Lato"  y="16">Weather</text><text text-decoration="none" x="75" fill="#4b4b4b" font-size="11pt" font-family="Lato"  y="16"></text><text text-decoration="none" x="3" fill="#4b4b4b" font-size="11pt" font-family="Lato"  y="38">Information&#160;</text><text text-decoration="none" x="89" fill="#4b4b4b" font-size="10pt" font-family="noto_regular"  y="38"></text></g><g transform="translate(830.5048634338378, 708.9998761145156) rotate(0, 0, 0)" width="68" height="19"><text text-decoration="none" x="0" fill="#4b4b4b" font-size="11pt" font-family="Lato"  y="17">Systerm&#160;</text><text text-decoration="none" x="60" fill="#4b4b4b" font-size="10pt" font-family="noto_regular"  y="17"></text></g><g transform="translate(788.1209428278605, 733.9997967007434) rotate(0, 46.5, 0)" width="93" height="37"><text text-decoration="none" x="1.5" fill="#4b4b4b" font-size="11pt" font-family="Lato"  y="16">STATION_NU</text><text text-decoration="none" x="91.5" fill="#4b4b4b" font-size="11pt" font-family="Lato"  y="16"></text><text text-decoration="none" x="37.5" fill="#4b4b4b" font-size="11pt" font-family="Lato"  y="38">M&#160;</text><text text-decoration="none" x="55.5" fill="#4b4b4b" font-size="10pt" font-family="noto_regular"  y="38"></text></g><g transform="translate(828.3368521499634, 752.9997363462767) rotate(0, 0, 0)" width="102" height="19"><text text-decoration="none" x="0" fill="#4b4b4b" font-size="11pt" font-family="Lato"  y="17">CONTRL_SYS&#160;</text><text text-decoration="none" x="92" fill="#4b4b4b" font-size="10pt" font-family="noto_regular"  y="17"></text></g><g transform="translate(828.3368521499634, 771.9996759918099) rotate(0, 0, 0)" width="92" height="19"><text text-decoration="none" x="0" fill="#4b4b4b" font-size="11pt" font-family="Lato"  y="17">DATA_ARCH&#160;</text><text text-decoration="none" x="89" fill="#4b4b4b" font-size="10pt" font-family="noto_regular"  y="17"></text></g></g><g id="1gfzbnq8a1"><g transform="translate(1065 665)"><path d="M 15.8,0.75 L 134.3,0.75 L 134.3,137.25 L 15.8,137.25 Z" fill="rgb(255, 255, 255)" stroke="rgb(0, 163, 136)" stroke-width="1.5" stroke-linecap="round" stroke-linejoin="round"/><path d="M 15.8,45.25 L 134.3,45.25" fill="none" stroke="rgb(0, 163, 136)" stroke-width="1.5" stroke-linecap="round" stroke-linejoin="round"/></g><g transform="translate(1070.316340713501, 666) rotate(0, 0, 0)" width="68" height="19"><text text-decoration="none" x="0" fill="#4b4b4b" font-size="11pt" font-family="Lato"  y="17">Weather&#160;</text><text text-decoration="none" x="62" fill="#4b4b4b" font-size="10pt" font-family="noto_regular"  y="17"></text></g><g transform="translate(1070.9447497812907, 688) rotate(0, 0, 0)" width="59" height="19"><text text-decoration="none" x="0" fill="#4b4b4b" font-size="11pt" font-family="Lato"  y="17">Station&#160;</text><text text-decoration="none" x="52" fill="#4b4b4b" font-size="10pt" font-family="noto_regular"  y="17"></text></g><g transform="translate(1029.6209428278605, 713) rotate(0, 45, 0)" width="90" height="37"><text text-decoration="none" x="1" fill="#4b4b4b" font-size="11pt" font-family="Lato"  y="16">STATION_LO</text><text text-decoration="none" x="89" fill="#4b4b4b" font-size="11pt" font-family="Lato"  y="16"></text><text text-decoration="none" x="38.5" fill="#4b4b4b" font-size="11pt" font-family="Lato"  y="38">C&#160;</text><text text-decoration="none" x="51.5" fill="#4b4b4b" font-size="10pt" font-family="noto_regular"  y="38"></text></g><g transform="translate(1068.3368521499633, 732) rotate(0, 0, 0)" width="92" height="19"><text text-decoration="none" x="0" fill="#4b4b4b" font-size="11pt" font-family="Lato"  y="17">STATION_ID&#160;</text><text text-decoration="none" x="87" fill="#4b4b4b" font-size="10pt" font-family="noto_regular"  y="17"></text></g><g transform="translate(1068.3368521499633, 751) rotate(0, 0, 0)" width="62" height="19"><text text-decoration="none" x="0" fill="#4b4b4b" font-size="11pt" font-family="Lato"  y="17">STATUS&#160;</text><text text-decoration="none" x="57" fill="#4b4b4b" font-size="10pt" font-family="noto_regular"  y="17"></text></g><g transform="translate(1068.3368521499633, 770) rotate(0, 0, 0)" width="77" height="19"><text text-decoration="none" x="0" fill="#4b4b4b" font-size="11pt" font-family="Lato"  y="17">WEATHER&#160;</text><text text-decoration="none" x="72" fill="#4b4b4b" font-size="10pt" font-family="noto_regular"  y="17"></text></g></g><g id="7bgxof9mg7"><g transform="translate(600 680)"><path d="M 0.75,0.75 L 128.25,0.75 L 128.25,112.75 L 0.75,112.75 Z" fill="rgb(255, 255, 255)" stroke="rgb(0, 163, 136)" stroke-width="1.5" stroke-linecap="round" stroke-linejoin="round"/><path d="M 0.75,40.25 L 128.25,40.25" fill="none" stroke="rgb(0, 163, 136)" stroke-width="1.5" stroke-linecap="round" stroke-linejoin="round"/></g><g transform="translate(612.7740994419077, 689.75) rotate(0, 0, 0)" width="107" height="19"><text text-decoration="none" x="0" fill="#4b4b4b" font-size="11pt" font-family="Lato"  y="17">Data&#160;</text><text text-decoration="none" x="36" fill="#4b4b4b" font-size="11pt" font-family="Lato"  y="17">Request&#160;</text><text text-decoration="none" x="95" fill="#4b4b4b" font-size="10pt" font-family="noto_regular"  y="17"></text></g><g transform="translate(609.6329274479959, 723) rotate(0, 0, 0)" width="88" height="19"><text text-decoration="none" x="0" fill="#4b4b4b" font-size="11pt" font-family="Lato"  y="17">DATA_TYPE&#160;</text><text text-decoration="none" x="83" fill="#4b4b4b" font-size="10pt" font-family="noto_regular"  y="17"></text></g><g transform="translate(609.6329274479959, 742) rotate(0, 0, 0)" width="40" height="19"><text text-decoration="none" x="0" fill="#4b4b4b" font-size="11pt" font-family="Lato"  y="17">TIME&#160;</text><text text-decoration="none" x="38" fill="#4b4b4b" font-size="10pt" font-family="noto_regular"  y="17"></text></g><g transform="translate(609.6329274479959, 761) rotate(0, 0, 0)" width="79" height="19"><text text-decoration="none" x="0" fill="#4b4b4b" font-size="11pt" font-family="Lato"  y="17">LOCATION&#160;</text><text text-decoration="none" x="78" fill="#4b4b4b" font-size="10pt" font-family="noto_regular"  y="17"></text></g></g><g id="a48t17qjg9"><g transform="translate(835 875)"><path d="M 0.75,0.75 L 128.75,0.75 L 128.75,108.75 L 0.75,108.75 Z" fill="rgb(255, 255, 255)" stroke="rgb(0, 163, 136)" stroke-width="1.5" stroke-linecap="round" stroke-linejoin="round"/><path d="M 0.75,40.25 L 128.75,40.25" fill="none" stroke="rgb(0, 163, 136)" stroke-width="1.5" stroke-linecap="round" stroke-linejoin="round"/></g><g transform="translate(874.5, 884.75) rotate(0, 0, 0)" width="49" height="19"><text text-decoration="none" x="0" fill="#4b4b4b" font-size="11pt" font-family="Lato"  y="17">Radar&#160;</text><text text-decoration="none" x="44" fill="#4b4b4b" font-size="10pt" font-family="noto_regular"  y="17"></text></g><g transform="translate(846.5, 918) rotate(0, 0, 0)" width="102" height="19"><text text-decoration="none" x="0" fill="#4b4b4b" font-size="11pt" font-family="Lato"  y="17">WEATH_INFO&#160;</text><text text-decoration="none" x="97" fill="#4b4b4b" font-size="10pt" font-family="noto_regular"  y="17"></text></g></g><g id="qxyjs2xwo7"><g transform="translate(365 680)"><path d="M 0.75,0.75 L 128.75,0.75 L 128.75,108.75 L 0.75,108.75 Z" fill="rgb(255, 255, 255)" stroke="rgb(0, 163, 136)" stroke-width="1.5" stroke-linecap="round" stroke-linejoin="round"/><path d="M 0.75,40.25 L 128.75,40.25" fill="none" stroke="rgb(0, 163, 136)" stroke-width="1.5" stroke-linecap="round" stroke-linejoin="round"/></g><g transform="translate(409.5, 689.75) rotate(0, 0, 0)" width="39" height="19"><text text-decoration="none" x="0" fill="#4b4b4b" font-size="11pt" font-family="Lato"  y="17">User&#160;</text><text text-decoration="none" x="36" fill="#4b4b4b" font-size="10pt" font-family="noto_regular"  y="17"></text></g><g transform="translate(376.5, 723) rotate(0, 0, 0)" width="69" height="19"><text text-decoration="none" x="0" fill="#4b4b4b" font-size="11pt" font-family="Lato"  y="17">USER_ID&#160;</text><text text-decoration="none" x="62" fill="#4b4b4b" font-size="10pt" font-family="noto_regular"  y="17"></text></g></g><g id="2lp6dw5f1h"><g><path d="M 494.7058823529412,734.4117647058823 L 599.7058823529412,734.4117647058823" fill="none" stroke="#a0a0a0" stroke-width="1.5" stroke-linecap="round" stroke-linejoin="round"/></g></g><g id="92zcj2y5q8"><g><path d="M 727.3529411764706,734.4117647058823 L 839.1176470588235,734.4117647058823" fill="none" stroke="#a0a0a0" stroke-width="1.5" stroke-linecap="round" stroke-linejoin="round"/></g></g><g id="12koit9ik6"><g><path d="M 958.2352941176471,733.2352941176471 L 1078.8235294117646,734.4117647058823" fill="none" stroke="#a0a0a0" stroke-width="1.5" stroke-linecap="round" stroke-linejoin="round"/></g></g><g id="fvh30tz2ne"><g><path d="M 894.1176470588235,588.8235294117648 L 894.1176470588235,669.1176470588235" fill="none" stroke="#a0a0a0" stroke-width="1.5" stroke-linecap="round" stroke-linejoin="round"/></g></g><g id="55carffb9r"><g><path d="M 894.1176470588235,804.4117647058823 L 894.1176470588235,874.7058823529412" fill="none" stroke="#a0a0a0" stroke-width="1.5" stroke-linecap="round" stroke-linejoin="round"/></g></g><g id="q40gs20k57"><g><path d="M 501.7647058823529,721.1764705882354 L 501.7647058823529,746.1764705882354" fill="none" stroke="#a0a0a0" stroke-width="1.5" stroke-linecap="round" stroke-linejoin="round"/></g></g><g id="3ztapkco45"><g><path d="M 509.7058823529412,719.4117647058823 L 509.7058823529412,749.4117647058823" fill="none" stroke="#a0a0a0" stroke-width="1.5" stroke-linecap="round" stroke-linejoin="round"/></g></g><g id="830pi8hdla"><g><path d="M 580.5882352941177,720.2941176470589 L 580.5882352941177,748.2352941176471" fill="none" stroke="#a0a0a0" stroke-width="1.5" stroke-linecap="round" stroke-linejoin="round"/></g></g><g id="2e91jbfcfn"><g><path d="M 590.5882352941177,718.2352941176471 L 590.5882352941177,752.3529411764706" fill="none" stroke="#a0a0a0" stroke-width="1.5" stroke-linecap="round" stroke-linejoin="round"/></g></g><g id="9mgmtylh84"><g><path d="M 736.4705882352941,719.4117647058823 L 736.4705882352941,749.4117647058823" fill="none" stroke="#a0a0a0" stroke-width="1.5" stroke-linecap="round" stroke-linejoin="round"/></g></g><g id="2r4a66pjkq"><g><path d="M 744.4117647058823,719.4117647058823 L 744.4117647058823,749.4117647058823" fill="none" stroke="#a0a0a0" stroke-width="1.5" stroke-linecap="round" stroke-linejoin="round"/></g></g><g id="2jknfku26e"><g><path d="M 819.1176470588235,719.4117647058823 L 819.1176470588235,749.4117647058823" fill="none" stroke="#a0a0a0" stroke-width="1.5" stroke-linecap="round" stroke-linejoin="round"/></g></g><g id="2aci9g4jq3"><g><path d="M 828.2352941176471,718.2352941176471 L 829.1176470588235,749.4117647058823" fill="none" stroke="#a0a0a0" stroke-width="1.5" stroke-linecap="round" stroke-linejoin="round"/></g></g><g id="1nzxj61oqo"><g><path d="M 881.1764705882354,593.8235294117648 L 908.2352941176471,593.8235294117648" fill="none" stroke="#a0a0a0" stroke-width="1.5" stroke-linecap="round" stroke-linejoin="round"/></g></g><g id="91vozj5h5c"><g><path d="M 880,602.6470588235294 L 908.2352941176471,602.6470588235294" fill="none" stroke="#a0a0a0" stroke-width="1.5" stroke-linecap="round" stroke-linejoin="round"/></g></g><g id="1txlh02gj8"><g transform="translate(885 638.4)"><path d="M 0.9089867417789448,10.992041417994844 C 1.6023638043982225,17.92747037627021 10.359905968175156,21.42989436493193 16.672562636577428,17.296404597585944 C 19.602276792193035,15.378045320405286 21.20881975557575,12.213459334578674 20.887022340914672,8.994715553369922 C 20.193645278295396,2.0592865950945534 11.436103114518462,-1.443137393567167 5.1234464461161915,2.690352373778822 C 2.193732290500581,4.608711650959478 0.5871893271178669,7.77329763678609 0.9089867417789448,10.992041417994844" fill="rgb(255, 255, 255)" stroke="rgb(50, 152, 218)" stroke-width="1.5" vector-effect="non-scaling-stroke"/></g></g><g id="2c2k22qgzj"><g><path d="M 904.1176470588235,650.5882352941177 L 909.1176470588235,669.1176470588235" fill="none" stroke="#a0a0a0" stroke-width="1.5" stroke-linecap="round" stroke-linejoin="round"/></g></g><g id="2dvesnho0g"><g><path d="M 886.1764705882354,652.3529411764706 L 879.1176470588235,669.1176470588235" fill="none" stroke="#a0a0a0" stroke-width="1.5" stroke-linecap="round" stroke-linejoin="round"/></g></g><g id="dfsld0t5v2"><g><path d="M 884.1176470588235,869.7058823529412 L 904.1176470588235,869.7058823529412" fill="none" stroke="#a0a0a0" stroke-width="1.5" stroke-linecap="round" stroke-linejoin="round"/></g></g><g id="2lezz8mryo"><g><path d="M 885,859.7058823529412 L 904.1176470588235,859.7058823529412" fill="none" stroke="#a0a0a0" stroke-width="1.5" stroke-linecap="round" stroke-linejoin="round"/></g></g><g id="16e0vfvph0"><g><path d="M 963.2352941176471,720.2941176470589 L 964.1176470588235,744.4117647058823" fill="none" stroke="#a0a0a0" stroke-width="1.5" stroke-linecap="round" stroke-linejoin="round"/></g></g><g id="1j8tv68mci"><g><path d="M 969.1176470588235,717.3529411764706 L 969.1176470588235,749.4117647058823" fill="none" stroke="#a0a0a0" stroke-width="1.5" stroke-linecap="round" stroke-linejoin="round"/></g></g><g id="20rq9sd6ih"><g transform="translate(1045 725)"><path d="M 0,10.065008616355078 C 9.463312718153359e-16,17.742619068613106 8.365135588056065,22.54112560127437 15.057244058500915,18.70232037514536 C 18.16306240831142,16.92072466949963 20.076325411334555,13.628200027646535 20.076325411334555,10.065008616355078 C 20.076325411334555,2.3873981640970507 11.711189823278492,-2.411108368564215 5.01908135283364,1.427696857564796 C 1.9132630030231363,3.2092925632105245 4.391938717048629e-16,6.501817205063621 0,10.065008616355078" fill="rgb(255, 255, 255)" stroke="rgb(50, 152, 218)" stroke-width="1.5" vector-effect="non-scaling-stroke"/></g></g><g id="n3po23raw7"><g><path d="M 1061.764705882353,726.1764705882354 L 1078.8235294117646,719.4117647058823" fill="none" stroke="#a0a0a0" stroke-width="1.5" stroke-linecap="round" stroke-linejoin="round"/></g></g><g id="13rh3admqs"><g><path d="M 1062.9411764705883,736.1764705882354 L 1078.8235294117646,754.4117647058823" fill="none" stroke="#a0a0a0" stroke-width="1.5" stroke-linecap="round" stroke-linejoin="round"/></g></g></svg>